<?xml version="1.0" encoding="utf-8"?>
<svg version="1.1" xmlns:xlink="http://www.w3.org/1999/xlink" width="154px" height="98px" xmlns="http://www.w3.org/2000/svg">
  <g transform="matrix(1 0 0 1 -348 -204 )">
    <path d="M 358.5 301.5  L 501.5 301.5  L 501.5 214.5  L 496.5 214.5  L 496.5 209.5  L 491.5 209.5  L 491.5 204.5  L 348.5 204.5  L 348.5 291.5  L 353.5 291.5  L 353.5 296.5  L 358.5 296.5  L 358.5 301.5  Z " fill-rule="nonzero" fill="#ffffff" stroke="none" />
    <path d="M 358.5 301.5  L 501.5 301.5  L 501.5 214.5  L 496.5 214.5  L 496.5 209.5  L 491.5 209.5  L 491.5 204.5  L 348.5 204.5  L 348.5 291.5  L 353.5 291.5  L 353.5 296.5  L 358.5 296.5  L 358.5 301.5  Z " stroke-width="1" stroke="#797979" fill="none" />
    <path d="M 496.5 215  L 496.5 296.5  L 359 296.5  M 491.5 210  L 491.5 291.5  L 354 291.5  " stroke-width="1" stroke="#797979" fill="none" />
  </g>
</svg>