<?xml version="1.0" encoding="utf-8"?>
<svg version="1.1" xmlns:xlink="http://www.w3.org/1999/xlink" width="167px" height="106px" xmlns="http://www.w3.org/2000/svg">
  <g transform="matrix(1 0 0 1 -74 -370 )">
    <path d="M 94 475.5  L 231 475.5  C 236.32 475.5  240.5 471.32  240.5 466  L 240.5 390  C 240.5 386.019603773678  238.16005511139 382.677374335159  234.753426824863 381.246573175137  C 233.804162307016 378.986446856925  232.013553143075 377.195837692984  229.753426824863 376.246573175137  C 228.322625664841 372.83994488861  224.980396226322 370.5  221 370.5  L 84 370.5  C 78.68 370.5  74.5 374.68  74.5 380  L 74.5 456  C 74.5 459.980396226322  76.8399448886101 463.322625664841  80.2465731751367 464.753426824863  C 81.1958376929841 467.013553143075  82.9864468569247 468.804162307016  85.2465731751367 469.753426824863  C 86.6773743351592 473.16005511139  90.0196037736782 475.5  94 475.5  Z " fill-rule="nonzero" fill="#ffffff" stroke="none" />
    <path d="M 94.5 475.5  L 230.5 475.5  C 236.1 475.5  240.5 471.1  240.5 465.5  L 240.5 390.5  C 240.5 386.382075431273  238.120786603431 382.913027243428  234.634752186914 381.365247813086  C 233.644031495374 379.133866286651  231.86613371335 377.355968504626  229.634752186914 376.365247813086  C 228.086972756572 372.879213396569  224.617924568727 370.5  220.5 370.5  L 84.5 370.5  C 78.9 370.5  74.5 374.9  74.5 380.5  L 74.5 455.5  C 74.5 459.617924568727  76.8792133965687 463.086972756572  80.365247813086 464.634752186914  C 81.3559685046255 466.86613371335  83.1338662866505 468.644031495374  85.365247813086 469.634752186914  C 86.9130272434282 473.120786603431  90.3820754312729 475.5  94.5 475.5  Z " stroke-width="1" stroke="#797979" fill="none" />
    <path d="M 234.678014577568 381.071985422432  C 235.207220379431 382.263905668009  235.5 383.592028340291  235.5 385  L 235.5 460.5  C 235.5 466.1  231.1 470.5  225.5 470.5  L 89 470.5  C 85.0879716597093 470.5  81.7923758812568 468.23974727326  80.3219854224317 464.928014577568  M 229.678014577568 376.071985422432  C 230.207220379431 377.263905668009  230.5 378.592028340291  230.5 380  L 230.5 455.499  C 230.5 461.099  226.1 465.499  220.5 465.499  L 84 465.5  C 82.5920283402907 465.5  81.2639056680094 465.207220379431  80.0719854224317 464.678014577568  " stroke-width="1" stroke="#797979" fill="none" />
  </g>
</svg>